<svg width="100" height="100" viewBox="0 0 100 100" fill="none" xmlns="http://www.w3.org/2000/svg">
<path d="M50.2684 24.4597V7L71.9127 24.4597H50.2684Z" fill="black"/>
<path d="M73.2114 25.3255H51.1457L69.0268 45.3826L73.2114 25.3255Z" fill="black"/>
<path d="M90.8154 45.3826L73.9328 25.9027L69.8926 45.3826H90.8154Z" fill="black"/>
<path d="M74.2119 65.947L69.8926 46.2483H90.8154L74.2119 65.947Z" fill="black"/>
<path d="M53.7315 88.3825L72.5033 67.9404H50.5761L53.7315 88.3825Z" fill="black"/>
<path d="M69.0268 46.5369L73.3557 66.8825H51.2785L69.0268 46.5369Z" fill="black"/>
<path d="M46.3724 88.9597L49.7218 68.5099L52.7214 88.9597L49.6912 93L46.3724 88.9597Z" fill="black"/>
<path d="M48.8675 67.9404H27.2251L45.5067 88.3825L48.8675 67.9404Z" fill="black"/>
<path d="M30.7885 46.2483L26.4597 66.8825H48.5369L30.7885 46.2483Z" fill="black"/>
<path d="M68.0167 46.2483H50.2684V66.594L68.0167 46.2483Z" fill="black"/>
<path d="M50.2684 45.3826V25.6141L68.0167 45.3826H50.2684Z" fill="black"/>
<path d="M49.4029 46.2481H31.7988L49.4029 66.5937V46.2481Z" fill="#282828"/>
<path d="M49.4029 45.3829V25.5103L32.1383 45.3829H49.4029Z" fill="#282828"/>
<path d="M49.2583 7L28.0469 24.4597H49.2583V7Z" fill="#3A3A3A"/>
<path d="M48.5366 25.3258L26.8923 25.6144L30.9092 45.2908L48.5366 25.3258Z" fill="#3A3A3A"/>
<path d="M26.0268 26.0463L9 45.3819H29.9228L26.0268 26.0463Z" fill="#3A3A3A"/>
<path d="M29.9228 46.2483L9 46.216L25.594 65.7282L29.9228 46.2483Z" fill="#3A3939"/>
</svg>
