    <svg
      width="51"
      height="51"
      viewBox="0 0 51 51"
      fill="none"
      xmlns="http://www.w3.org/2000/svg"
    >
      <path
        d="M2.04 51C1.49896 51 0.980106 50.7849 0.597532 50.4023C0.214958 50.0198 0 49.501 0 48.96V2.04C0 1.49896 0.214958 0.98023 0.597532 0.597656C0.980106 0.215082 1.49896 0 2.04 0H48.96C49.501 0 50.0199 0.215082 50.4025 0.597656C50.785 0.98023 51 1.49896 51 2.04V48.96C51 49.501 50.785 50.0198 50.4025 50.4023C50.0199 50.7849 49.501 51 48.96 51H2.04ZM28.7537 34.3189C28.8828 34.3193 29.0073 34.3672 29.103 34.4539C29.1987 34.5405 29.2588 34.6597 29.272 34.7881L30.0043 42.0302C30.018 42.1586 30.0786 42.2771 30.1747 42.3634C30.2707 42.4496 30.3954 42.4976 30.5245 42.4973H41.9791C42.049 42.4977 42.1183 42.484 42.1828 42.457C42.2473 42.43 42.3057 42.39 42.3545 42.34C42.4033 42.2898 42.4414 42.2308 42.4666 42.1656C42.4918 42.1004 42.5036 42.0308 42.5013 41.9609L41.975 28.2681C41.9692 28.1336 41.9117 28.0067 41.8144 27.9135C41.7171 27.8204 41.5875 27.7685 41.4528 27.7686C41.3205 27.7695 41.1932 27.8194 41.0958 27.9091C40.786 28.184 40.386 28.3357 39.9717 28.3354H11.0385C10.6235 28.336 10.2228 28.1843 9.91238 27.9091C9.81501 27.8194 9.68776 27.7695 9.5554 27.7686C9.4209 27.7685 9.29156 27.8203 9.19457 27.9135C9.09758 28.0067 9.04047 28.1337 9.03519 28.2681L8.50677 41.959C8.50422 42.0292 8.51601 42.0991 8.54125 42.1646C8.5665 42.2302 8.60471 42.2896 8.65369 42.34C8.70249 42.39 8.7609 42.43 8.82539 42.457C8.88988 42.484 8.95918 42.4977 9.02909 42.4973H20.5978C20.7271 42.4975 20.8517 42.4496 20.9475 42.3629C21.0433 42.2761 21.1034 42.1568 21.1161 42.0282L21.8137 34.7901C21.8264 34.6609 21.8866 34.541 21.9828 34.4539C22.079 34.3668 22.2042 34.3188 22.3339 34.3189H28.7537ZM9.0657 24.9696V26.0284C9.0657 26.1785 9.12526 26.3226 9.23117 26.4289C9.33709 26.5352 9.4808 26.5952 9.63086 26.5957H41.365C41.5151 26.5952 41.6588 26.5352 41.7647 26.4289C41.8706 26.3226 41.9302 26.1785 41.9302 26.0284V24.9696C41.9302 24.8195 41.8706 24.6754 41.7647 24.5691C41.6588 24.4629 41.5151 24.4028 41.365 24.4023H9.63086C9.4808 24.4034 9.33733 24.464 9.2318 24.5706C9.12626 24.6773 9.06727 24.8215 9.06781 24.9716L9.0657 24.9696ZM39.9676 22.6646C40.3828 22.6647 40.7835 22.8171 41.0937 23.0929C41.1912 23.1809 41.3174 23.23 41.4487 23.2314C41.5843 23.2315 41.7146 23.1794 41.8124 23.0855C41.9102 22.9915 41.9677 22.8634 41.973 22.7279L42.4993 9.04105C42.5014 8.97089 42.4894 8.90135 42.4642 8.83585C42.439 8.77035 42.401 8.71068 42.3524 8.66004C42.3036 8.60979 42.2453 8.56983 42.1808 8.5425C42.1164 8.51517 42.0472 8.50078 41.9771 8.50066H30.5204C30.3914 8.50004 30.2668 8.54774 30.1709 8.63414C30.0751 8.72054 30.0149 8.83943 30.0022 8.96783L29.27 16.2119C29.256 16.3398 29.1954 16.458 29.0999 16.5441C29.0043 16.6303 28.8804 16.6784 28.7517 16.6791H22.3196C22.19 16.6787 22.0652 16.6302 21.9691 16.5431C21.873 16.4561 21.8125 16.3369 21.7994 16.2079L21.1017 8.96982C21.0895 8.84105 21.0295 8.72146 20.9337 8.63464C20.8378 8.54782 20.713 8.50008 20.5837 8.50066H9.01676C8.94685 8.50028 8.87756 8.51402 8.81306 8.54101C8.74857 8.56799 8.69029 8.60749 8.64149 8.65755C8.59251 8.70792 8.55417 8.7678 8.52893 8.83336C8.50368 8.89892 8.49202 8.96884 8.49456 9.03905L9.02287 22.7319C9.02814 22.8663 9.08537 22.9933 9.18237 23.0865C9.27936 23.1797 9.40857 23.2315 9.54308 23.2314C9.67505 23.2305 9.80219 23.1814 9.90018 23.0929C10.2104 22.8171 10.6111 22.6647 11.0263 22.6646H39.9676Z"
        fill="#5D78FF"
      />
    </svg>